<?xml version="1.0" encoding="utf-8"?>
<!DOCTYPE svg PUBLIC "-//W3C//DTD SVG 1.1//EN" "http://www.w3.org/Graphics/SVG/1.1/DTD/svg11.dtd">
<svg version="1.1" id="Layer_1" xmlns="http://www.w3.org/2000/svg" xmlns:xlink="http://www.w3.org/1999/xlink" x="0px" y="0px"
	 width="313" height="202" viewBox="0 0 313 202" enable-background="new 0 0 313 202"
	 xml:space="preserve">
<polygon points="-144,66 297,529 337,-158 " fill="#766f71"/>
<polygon points="-151,274 460,182 -30,104 " fill="#2e3a4b"/>
<polygon points="-73,52 339,66 221,-318 " fill="#caa489"/>
<polygon points="198,253 507,118 316,109 " fill="#18252c"/>
<polygon points="303,146 186,186 161,135 " fill="#545869"/>
<polygon points="223,127 368,61 107,59 " fill="#8c8488"/>
<polygon points="3,92 180,129 41,148 " fill="#45546b"/>
<polygon points="129,193 144,130 207,229 " fill="#16202a"/>
<polygon points="260,107 59,51 -32,76 " fill="#84838a"/>
<polygon points="188,120 12,80 -31,110 " fill="#56627a"/>
<polygon points="193,105 134,100 165,155 " fill="#5a6277"/>
<polygon points="248,141 174,133 249,178 " fill="#606072"/>
<polygon points="271,152 282,147 308,158 " fill="#39414c"/>
<polygon points="140,147 118,180 123,117 " fill="#464f63"/>
<polygon points="-6,56 -10,-10 109,59 " fill="#bd9384"/>
<polygon points="130,165 -28,139 -13,97 " fill="#35465d"/>
<polygon points="114,29 377,36 -3,-168 " fill="#d2b590"/>
<polygon points="105,141 122,139 108,157 " fill="#1a242f"/>
<polygon points="236,182 277,164 261,223 " fill="#15232a"/>
<polygon points="232,174 183,201 176,168 " fill="#394455"/>
<polygon points="264,152 331,85 175,118 " fill="#777480"/>
<polygon points="-4,183 26,322 155,197 " fill="#242c37"/>
<polygon points="44,97 84,82 214,106 " fill="#6b7385"/>
<polygon points="285,140 312,128 315,98 " fill="#424956"/>
<polygon points="390,67 337,26 187,52 " fill="#cf9a82"/>
<polygon points="168,155 123,174 178,174 " fill="#16222d"/>
<polygon points="260,65 236,100 187,63 " fill="#978b8a"/>
<polygon points="301,121 298,134 283,133 " fill="#5d5e6c"/>
<polygon points="95,191 109,164 138,208 " fill="#1d2d42"/>
<polygon points="313,87 236,98 320,109 " fill="#858087"/>
<polygon points="115,99 92,123 191,119 " fill="#5a647a"/>
<polygon points="106,148 82,172 88,126 " fill="#3c4b5f"/>
<polygon points="272,158 251,160 283,167 " fill="#404652"/>
<polygon points="307,114 326,124 289,155 " fill="#2c3742"/>
<polygon points="144,133 122,159 117,132 " fill="#454f62"/>
<polygon points="-9,89 -28,110 71,114 " fill="#4a5973"/>
<polygon points="257,166 217,183 236,160 " fill="#454d5f"/>
<polygon points="36,34 268,60 138,61 " fill="#c39384"/>
<polygon points="271,136 196,140 269,161 " fill="#6a6777"/>
<polygon points="258,168 252,160 277,169 " fill="#232f38"/>
<polygon points="130,167 144,141 133,193 " fill="#14222d"/>
<polygon points="171,160 176,132 151,140 " fill="#4a5264"/>
<polygon points="73,63 34,56 -60,62 " fill="#6a7687"/>
<polygon points="151,148 156,143 152,130 " fill="#4d3e38"/>
<polygon points="216,210 201,191 182,194 " fill="#1b2938"/>
<polygon points="4,189 28,133 -13,153 " fill="#26384b"/>
<polygon points="151,125 126,112 143,135 " fill="#4c586f"/>
<polygon points="254,176 238,172 256,187 " fill="#2f3a48"/>
<polygon points="215,128 144,83 226,109 " fill="#767784"/>
<polygon points="263,170 367,140 256,263 " fill="#101e24"/>
<polygon points="320,87 198,79 291,59 " fill="#978a89"/>
<polygon points="130,168 128,191 123,182 " fill="#3a4458"/>
<polygon points="184,198 147,201 228,202 " fill="#1a2734"/>
<polygon points="144,134 156,146 148,129 " fill="#3a3230"/>
<polygon points="287,147 157,122 292,143 " fill="#6c6a79"/>
<polygon points="90,164 127,182 107,152 " fill="#283a58"/>
<polygon points="150,113 69,96 186,105 " fill="#626b7f"/>
<polygon points="132,156 184,200 135,197 " fill="#101d26"/>
<polygon points="-11,78 55,82 68,100 " fill="#697184"/>
<polygon points="-18,65 130,84 155,60 " fill="#8c888b"/>
<polygon points="35,114 110,140 72,153 " fill="#3b4b62"/>
<polygon points="211,155 167,157 201,177 " fill="#484f61"/>
<polygon points="288,154 282,149 276,169 " fill="#212e37"/>
<polygon points="224,175 188,192 238,193 " fill="#354152"/>
<polygon points="256,31 127,32 192,57 " fill="#d3a284"/>
<polygon points="96,188 101,162 19,143 " fill="#314156"/>
<polygon points="303,147 295,135 315,141 " fill="#1a2830"/>
<polygon points="309,128 308,111 300,113 " fill="#303b47"/>
<polygon points="229,138 179,142 178,119 " fill="#69697a"/>
<polygon points="111,144 118,153 101,153 " fill="#19222c"/>
<polygon points="93,120 125,136 143,124 " fill="#4b586e"/>
<polygon points="247,187 226,172 256,189 " fill="#1f2d37"/>
<polygon points="155,138 191,146 148,115 " fill="#525b6f"/>
<polygon points="160,169 174,162 180,185 " fill="#22252f"/>
<polygon points="318,61 245,60 305,52 " fill="#bf8f84"/>
<polygon points="292,157 294,137 286,128 " fill="#434855"/>
<polygon points="54,7 144,34 94,-66 " fill="#caae8e"/>
<polygon points="166,156 141,140 176,175 " fill="#15222d"/>
<polygon points="37,-25 63,44 -12,10 " fill="#c09f87"/>
<polygon points="146,63 126,58 89,59 " fill="#7a7f8a"/>
<polygon points="179,198 188,194 169,198 " fill="#222732"/>
<polygon points="52,51 45,58 78,59 " fill="#af8b87"/>
<polygon points="231,42 333,41 302,18 " fill="#d5aa85"/>
<polygon points="26,58 66,51 -64,41 " fill="#b38984"/>
<polygon points="107,140 58,118 102,156 " fill="#3e4d63"/>
<polygon points="281,19 368,-188 133,11 " fill="#d1ba96"/>
<polygon points="48,100 29,87 112,102 " fill="#5d6981"/>
<polygon points="232,38 143,16 98,32 " fill="#d3ac88"/>
<polygon points="273,171 257,170 250,214 " fill="#122027"/>
<polygon points="87,199 130,188 145,220 " fill="#212b37"/>
<polygon points="-2,73 0,84 32,91 " fill="#6a7183"/>
<polygon points="44,111 6,110 32,128 " fill="#3e4f69"/>
<polygon points="280,151 292,119 277,141 " fill="#6f6b79"/>
<polygon points="240,102 201,96 243,84 " fill="#8e868a"/>
<polygon points="296,133 302,138 308,116 " fill="#3b4451"/>
<polygon points="179,147 191,107 178,108 " fill="#64687b"/>
<polygon points="285,135 288,154 293,155 " fill="#5f606f"/>
<polygon points="117,50 134,34 210,57 " fill="#cd9983"/>
<polygon points="38,43 29,19 97,45 " fill="#c79983"/>
<polygon points="6,66 18,56 -2,56 " fill="#657386"/>
<polygon points="115,117 120,112 114,113 " fill="#73727e"/>
<polygon points="264,169 260,180 275,157 " fill="#1f2a33"/>
<polygon points="178,180 176,164 216,168 " fill="#444b5d"/>
<polygon points="269,152 284,147 279,157 " fill="#414754"/>
<polygon points="279,164 270,155 274,147 " fill="#363d4a"/>
<polygon points="157,163 155,149 130,156 " fill="#142432"/>
<polygon points="42,187 51,194 60,181 " fill="#293443"/>
<polygon points="240,159 234,175 256,174 " fill="#494f61"/>
<polygon points="161,200 154,165 181,195 " fill="#111a21"/>
<polygon points="160,164 162,171 168,168 " fill="#2d3643"/>
<polygon points="119,184 123,181 126,146 " fill="#494c5f"/>
<polygon points="45,90 79,87 34,77 " fill="#737987"/>
<polygon points="127,83 215,80 168,62 " fill="#8e8a8b"/>
<polygon points="121,152 120,180 100,163 " fill="#253957"/>
<polygon points="121,115 127,110 127,115 " fill="#6d6c70"/>
<polygon points="72,111 112,127 91,103 " fill="#4f5d76"/>
<polygon points="115,94 201,93 152,83 " fill="#787d89"/>
<polygon points="26,1 82,-4 54,24 " fill="#c2a78c"/>
<polygon points="94,192 84,170 64,192 " fill="#2b3b4e"/>
<polygon points="284,158 274,152 271,142 " fill="#434856"/>
<polygon points="221,175 219,171 230,166 " fill="#645d69"/>
<polygon points="227,192 260,209 232,201 " fill="#1f2d38"/>
<polygon points="138,133 126,161 140,150 " fill="#464f63"/>
<polygon points="107,57 131,41 57,31 " fill="#c99883"/>
<polygon points="175,133 151,145 160,151 " fill="#4a5265"/>
<polygon points="6,175 39,192 52,183 " fill="#283647"/>
<polygon points="139,138 146,133 154,150 " fill="#252426"/>
<polygon points="214,168 228,177 182,178 " fill="#40495a"/>
<polygon points="110,59 100,53 125,56 " fill="#b58d87"/>
<polygon points="223,125 231,109 181,92 " fill="#7c7a85"/>
<polygon points="106,88 69,86 92,81 " fill="#787d89"/>
<polygon points="250,162 255,163 249,176 " fill="#404756"/>
<polygon points="246,200 234,198 249,213 " fill="#122129"/>
<polygon points="296,125 205,129 251,145 " fill="#736f7d"/>
<polygon points="224,186 235,197 233,167 " fill="#354152"/>
<polygon points="123,174 134,186 123,187 " fill="#384156"/>
<polygon points="302,126 321,129 316,154 " fill="#222e38"/>
<polygon points="130,163 126,153 120,175 " fill="#565566"/>
<polygon points="102,58 101,62 114,58 " fill="#757d8a"/>
<polygon points="234,61 215,58 228,52 " fill="#bd9286"/>
<polygon points="162,152 160,179 130,160 " fill="#12202c"/>
<polygon points="276,162 279,158 272,154 " fill="#28313c"/>
<polygon points="311,95 271,94 314,82 " fill="#8b8488"/>
<polygon points="43,183 27,148 80,178 " fill="#2d3d50"/>
<polygon points="86,168 71,144 102,158 " fill="#38475b"/>
<polygon points="188,191 186,205 192,183 " fill="#2e3f56"/>
<polygon points="195,144 185,149 168,131 " fill="#5b5e72"/>
<polygon points="125,114 111,123 143,119 " fill="#525e75"/>
<polygon points="302,125 280,101 254,105 " fill="#777582"/>
<polygon points="180,198 182,198 184,186 " fill="#3f485c"/>
<polygon points="63,61 90,58 101,62 " fill="#767d89"/>
<polygon points="87,41 95,28 178,43 " fill="#cfa083"/>
<polygon points="15,128 13,143 49,140 " fill="#2e4157"/>
<polygon points="53,32 28,21 60,10 " fill="#c5a187"/>
<polygon points="243,37 155,26 359,17 " fill="#d5b18a"/>
<polygon points="20,186 -15,181 10,188 " fill="#30333d"/>
<polygon points="92,140 85,126 97,121 " fill="#45546a"/>
<polygon points="14,20 -50,7 34,-11 " fill="#b99d87"/>
<polygon points="39,106 52,119 63,103 " fill="#4f5c76"/>
<polygon points="165,172 176,169 168,166 " fill="#171e26"/>
<polygon points="16,148 5,132 -5,136 " fill="#2d3f55"/>
<polygon points="186,198 192,199 180,207 " fill="#19304a"/>
<polygon points="255,108 266,96 208,112 " fill="#7f7c85"/>
<polygon points="310,153 298,153 304,170 " fill="#112127"/>
<polygon points="299,142 306,150 310,130 " fill="#1e2b34"/>
<polygon points="236,174 249,187 239,193 " fill="#1a2831"/>
<polygon points="178,44 191,57 224,45 " fill="#d09982"/>
<polygon points="270,91 373,67 299,65 " fill="#938988"/>
<polygon points="50,86 99,96 68,97 " fill="#667084"/>
<polygon points="210,161 196,142 248,164 " fill="#585a6d"/>
<polygon points="268,62 236,86 205,64 " fill="#9a8c89"/>
<polygon points="159,65 164,73 100,67 " fill="#948b8a"/>
<polygon points="263,126 270,106 249,111 " fill="#727180"/>
<polygon points="125,162 116,154 132,166 " fill="#3a4257"/>
<polygon points="100,172 95,192 120,174 " fill="#1d304b"/>
<polygon points="309,113 305,112 304,123 " fill="#24313b"/>
<polygon points="108,13 158,11 63,-74 " fill="#cbb493"/>
<polygon points="288,138 262,116 273,141 " fill="#74707d"/>
<polygon points="244,45 324,34 307,55 " fill="#d39d80"/>
<polygon points="154,150 156,139 154,135 " fill="#555051"/>
<polygon points="167,64 208,62 173,62 " fill="#787b87"/>
<polygon points="34,127 37,109 27,114 " fill="#44536d"/>
<polygon points="274,127 291,117 284,138 " fill="#797480"/>
<polygon points="130,160 158,175 131,182 " fill="#111f2a"/>
<polygon points="300,134 307,125 312,126 " fill="#37414e"/>
<polygon points="129,185 134,187 127,197 " fill="#263443"/>
<polygon points="97,187 101,174 85,192 " fill="#273b5a"/>
<polygon points="211,61 210,64 192,61 " fill="#7a7c88"/>
<polygon points="58,54 -33,13 -3,45 " fill="#bc8d81"/>
<polygon points="36,77 -12,71 2,80 " fill="#7a7d88"/>
<polygon points="237,188 211,198 196,190 " fill="#333f4f"/>
<polygon points="168,209 182,188 171,177 " fill="#1a1c23"/>
<polygon points="81,123 88,113 63,111 " fill="#485871"/>
<polygon points="117,154 113,166 97,160 " fill="#243a5d"/>
<polygon points="148,132 142,144 150,136 " fill="#272322"/>
<polygon points="117,12 190,23 130,27 " fill="#d1b08c"/>
<polygon points="141,93 173,105 190,99 " fill="#6d7485"/>
<polygon points="57,192 79,186 59,180 " fill="#293849"/>
<polygon points="312,112 310,107 307,125 " fill="#35404c"/>
<polygon points="147,200 145,206 168,198 " fill="#222832"/>
<polygon points="49,191 46,187 19,189 " fill="#30323d"/>
<polygon points="246,186 253,177 263,160 " fill="#24303b"/>
<polygon points="242,202 226,199 212,214 " fill="#212d3a"/>
<polygon points="7,108 16,123 -14,112 " fill="#384c64"/>
<polygon points="81,71 105,60 93,60 " fill="#8a878b"/>
<polygon points="216,121 229,153 238,153 " fill="#6d6a7a"/>
<polygon points="249,31 230,11 288,17 " fill="#d6b790"/>
<polygon points="-1,34 25,26 64,53 " fill="#c19281"/>
<polygon points="302,109 299,120 306,110 " fill="#585a68"/>
<polygon points="121,154 119,145 120,136 " fill="#584d59"/>
<polygon points="134,61 175,62 147,65 " fill="#777c88"/>
<polygon points="110,138 106,152 121,146 " fill="#182028"/>
<polygon points="265,166 260,172 279,159 " fill="#2a353f"/>
<polygon points="22,178 3,152 -2,185 " fill="#253647"/>
<polygon points="130,172 129,165 117,190 " fill="#353e50"/>
<polygon points="256,177 254,169 278,179 " fill="#152329"/>
<polygon points="286,104 305,105 285,129 " fill="#7b7782"/>
<polygon points="167,155 146,146 130,159 " fill="#152534"/>
<polygon points="232,172 246,173 236,159 " fill="#4c5265"/>
<polygon points="290,127 298,129 300,121 " fill="#6b6977"/>
<polygon points="296,148 301,151 312,144 " fill="#222e38"/>
<polygon points="139,137 142,148 151,132 " fill="#292526"/>
<polygon points="221,172 220,172 229,171 " fill="#b27c64"/>
<polygon points="173,201 181,192 176,204 " fill="#1f2631"/>
<polygon points="6,95 3,100 -8,85 " fill="#545e78"/>
<polygon points="147,130 160,140 148,128 " fill="#4f4a4d"/>
<polygon points="254,185 231,178 248,178 " fill="#1b2932"/>
<polygon points="288,135 290,138 292,136 " fill="#242f39"/>
<polygon points="64,127 51,122 80,115 " fill="#3e5069"/>
<polygon points="12,16 40,35 -10,22 " fill="#c09883"/>
<polygon points="239,60 289,57 213,52 " fill="#c39285"/>
<polygon points="231,163 253,162 238,173 " fill="#4e5366"/>
<polygon points="44,179 44,175 40,177 " fill="#3f4b61"/>
<polygon points="119,144 122,143 119,141 " fill="#625764"/>
<polygon points="279,160 311,171 280,156 " fill="#122127"/>
<polygon points="152,137 155,132 155,145 " fill="#5b4332"/>
<polygon points="171,40 282,44 229,32 " fill="#d4a584"/>
<polygon points="117,173 96,172 117,167 " fill="#213553"/>
<polygon points="111,68 77,78 58,66 " fill="#918b8b"/>
<polygon points="168,115 154,105 191,107 " fill="#626a7e"/>
<polygon points="109,155 117,149 121,153 " fill="#222735"/>
<polygon points="241,212 171,233 193,196 " fill="#112029"/>
<polygon points="300,171 281,152 343,185 " fill="#111f26"/>
<polygon points="35,61 5,65 30,56 " fill="#6b7687"/>
<polygon points="292,138 283,138 285,145 " fill="#6f6c7a"/>
<polygon points="131,161 128,163 119,151 " fill="#59586a"/>
<polygon points="226,57 228,61 208,61 " fill="#b59088"/>
<polygon points="124,173 121,186 126,174 " fill="#2d3547"/>
<polygon points="69,72 101,82 44,77 " fill="#89888c"/>
<polygon points="233,151 251,149 271,163 " fill="#616071"/>
<polygon points="118,149 109,139 105,145 " fill="#141e27"/>
<polygon points="82,59 66,63 56,59 " fill="#707a89"/>
<polygon points="187,130 203,133 185,99 " fill="#70707f"/>
<polygon points="302,132 311,126 295,132 " fill="#414956"/>
<polygon points="28,153 23,141 40,141 " fill="#324156"/>
<polygon points="164,125 132,122 163,115 " fill="#525e75"/>
<polygon points="17,64 34,58 14,59 " fill="#637387"/>
<polygon points="97,188 118,195 119,171 " fill="#192c44"/>
<polygon points="260,143 266,165 268,166 " fill="#626070"/>
<polygon points="294,144 288,151 297,133 " fill="#343c48"/>
<polygon points="130,188 130,162 124,180 " fill="#3c475a"/>
<polygon points="221,83 218,72 189,82 " fill="#958b8b"/>
<polygon points="297,154 290,154 298,160 " fill="#38414e"/>
<polygon points="177,132 174,146 163,129 " fill="#52596e"/>
<polygon points="277,147 283,148 271,141 " fill="#636371"/>
<polygon points="121,187 120,183 121,177 " fill="#454759"/>
<polygon points="270,161 266,162 270,149 " fill="#5f5f6f"/>
<polygon points="190,143 175,140 178,129 " fill="#606275"/>
<polygon points="98,172 99,181 92,185 " fill="#304368"/>
<polygon points="106,101 75,97 105,96 " fill="#606c82"/>
<polygon points="304,100 316,114 315,111 " fill="#6d6d78"/>
<polygon points="98,33 101,16 142,25 " fill="#ceaa89"/>
<polygon points="155,124 176,143 144,129 " fill="#4f586c"/>
<polygon points="91,190 69,191 90,167 " fill="#2d3c4f"/>
<polygon points="238,178 242,173 250,177 " fill="#3b4555"/>
<polygon points="311,123 306,128 306,118 " fill="#26343f"/>
<polygon points="249,56 218,53 220,38 " fill="#ca9983"/>
<polygon points="28,111 36,120 25,92 " fill="#4c5b76"/>
<polygon points="119,98 112,123 111,118 " fill="#626a7d"/>
<polygon points="-3,183 4,219 24,195 " fill="#202934"/>
<polygon points="124,182 125,187 124,154 " fill="#504e60"/>
<polygon points="208,158 193,157 212,151 " fill="#505668"/>
<polygon points="176,82 161,88 211,91 " fill="#7e8089"/>
<polygon points="212,131 227,125 199,120 " fill="#72707e"/>
<polygon points="193,170 186,169 190,149 " fill="#4b5266"/>
<polygon points="243,146 240,120 223,131 " fill="#73707d"/>
<polygon points="299,148 302,148 299,141 " fill="#434855"/>
<polygon points="161,62 175,59 156,58 " fill="#ac8c88"/>
<polygon points="164,153 192,169 166,137 " fill="#495164"/>
<polygon points="310,196 282,179 298,217 " fill="#0e1b22"/>
<polygon points="291,140 256,133 249,144 " fill="#6f6c7a"/>
<polygon points="259,161 255,175 256,185 " fill="#1a2831"/>
<polygon points="281,14 358,-1 289,0 " fill="#ceb792"/>
<polygon points="299,135 301,116 304,122 " fill="#474c5b"/>
<polygon points="36,124 55,132 38,117 " fill="#364962"/>
<polygon points="119,58 135,58 112,53 " fill="#bc8f86"/>
<polygon points="63,94 71,86 45,91 " fill="#667084"/>
<polygon points="152,132 152,142 147,139 " fill="#312823"/>
<polygon points="220,170 205,152 219,176 " fill="#4d5264"/>
<polygon points="17,186 24,156 47,168 " fill="#2a3a4c"/>
<polygon points="188,2 254,-8 225,12 " fill="#d1bd99"/>
<polygon points="109,139 115,130 87,137 " fill="#414f65"/>
<polygon points="234,190 221,191 238,198 " fill="#303d4d"/>
<polygon points="80,143 75,144 72,140 " fill="#46536a"/>
<polygon points="219,115 245,125 211,120 " fill="#767481"/>
<polygon points="204,125 204,126 207,124 " fill="#898589"/>
<polygon points="236,185 234,174 233,176 " fill="#24303c"/>
<polygon points="320,136 316,147 302,143 " fill="#19262d"/>
<polygon points="66,110 52,113 64,118 " fill="#4c5a73"/>
<polygon points="288,135 285,135 289,140 " fill="#515361"/>
<polygon points="28,117 21,122 2,111 " fill="#364a63"/>
<polygon points="23,58 -13,52 8,54 " fill="#9b8185"/>
<polygon points="227,154 232,165 209,149 " fill="#5c5d6f"/>
<polygon points="125,58 104,59 123,60 " fill="#687889"/>
<polygon points="246,121 244,142 259,123 " fill="#787380"/>
<polygon points="238,12 185,20 216,27 " fill="#d5b790"/>
<polygon points="294,152 290,149 315,154 " fill="#1b2931"/>
<polygon points="57,55 29,45 93,47 " fill="#bf8f84"/>
<polygon points="49,63 79,74 34,72 " fill="#908a8b"/>
<polygon points="98,170 120,162 103,153 " fill="#253b5d"/>
<polygon points="81,169 100,168 85,177 " fill="#314154"/>
<polygon points="250,176 242,185 250,183 " fill="#17252d"/>
<polygon points="292,50 274,58 311,53 " fill="#cc9480"/>
<polygon points="111,183 129,193 115,194 " fill="#16283d"/>
<polygon points="201,136 191,140 213,145 " fill="#626374"/>
<polygon points="59,41 135,56 69,54 " fill="#c29184"/>
<polygon points="168,63 195,67 163,70 " fill="#958b8a"/>
<polygon points="165,61 150,57 128,59 " fill="#ad8c88"/>
<polygon points="227,161 229,161 230,165 " fill="#67687a"/>
<polygon points="121,143 120,149 121,156 " fill="#66535d"/>
<polygon points="127,82 105,83 130,97 " fill="#7b7e89"/>
<polygon points="76,105 91,106 71,114 " fill="#4c5c76"/>
<polygon points="291,132 288,135 290,136 " fill="#2c3740"/>
<polygon points="204,196 201,193 196,198 " fill="#1e3146"/>
<polygon points="269,161 271,164 283,170 " fill="#1f2d36"/>
<polygon points="263,160 272,161 254,148 " fill="#646272"/>
<polygon points="2,-4 31,15 42,-6 " fill="#bca28a"/>
<polygon points="99,171 97,152 85,157 " fill="#39475b"/>
<polygon points="190,83 218,100 192,102 " fill="#838188"/>
<polygon points="299,135 295,125 298,129 " fill="#565866"/>
<polygon points="116,213 126,193 156,201 " fill="#252c37"/>
<polygon points="210,195 218,172 228,188 " fill="#384354"/>
<polygon points="256,201 240,187 279,197 " fill="#101e25"/>
<polygon points="178,169 158,164 163,158 " fill="#111f29"/>
<polygon points="241,144 227,134 236,159 " fill="#6c6979"/>
<polygon points="21,86 62,102 27,95 " fill="#5a677f"/>
<polygon points="123,155 122,156 100,156 " fill="#21314a"/>
<polygon points="122,163 120,176 117,170 " fill="#343e55"/>
<polygon points="182,106 184,93 165,102 " fill="#6c7384"/>
<polygon points="290,111 299,118 290,132 " fill="#75727f"/>
<polygon points="299,127 314,121 357,120 " fill="#293743"/>
<polygon points="35,46 66,60 64,60 " fill="#b48c86"/>
<polygon points="312,125 311,124 322,103 " fill="#1e2d37"/>
<polygon points="11,142 19,164 24,138 " fill="#293b4f"/>
<polygon points="13,86 -46,87 -2,96 " fill="#59667d"/>
<polygon points="160,57 180,61 259,59 " fill="#b98f87"/>
<polygon points="56,131 70,145 54,154 " fill="#38485e"/>
<polygon points="47,81 64,81 55,89 " fill="#767b88"/>
<polygon points="203,85 215,73 203,82 " fill="#998d8a"/>
<polygon points="167,126 163,137 143,122 " fill="#515b71"/>
<polygon points="189,170 174,174 186,178 " fill="#40495b"/>
<polygon points="79,26 37,29 91,39 " fill="#ca9f85"/>
<polygon points="131,93 125,104 135,110 " fill="#677082"/>
<polygon points="325,34 234,43 305,44 " fill="#d5a281"/>
<polygon points="49,57 -9,52 -5,56 " fill="#a48586"/>
<polygon points="153,154 163,151 155,166 " fill="#162431"/>
<polygon points="177,199 146,212 184,209 " fill="#2a3646"/>
<polygon points="146,97 90,84 147,91 " fill="#757b88"/>
<polygon points="86,18 55,12 120,-108 " fill="#c5ab8e"/>
<polygon points="268,141 275,150 275,154 " fill="#585867"/>
<polygon points="24,75 1,72 30,84 " fill="#7b7d88"/>
<polygon points="237,221 224,192 225,207 " fill="#22303d"/>
<polygon points="291,142 324,133 291,144 " fill="#1f2b34"/>
<polygon points="303,99 307,111 309,109 " fill="#77757f"/>
<polygon points="126,108 148,108 136,102 " fill="#5f697d"/>
<polygon points="45,126 46,118 64,126 " fill="#3b4d66"/>
<polygon points="30,80 60,83 37,87 " fill="#717787"/>
<polygon points="272,153 278,146 269,162 " fill="#454957"/>
<polygon points="237,174 235,170 216,180 " fill="#3c4657"/>
<polygon points="141,126 136,143 118,135 " fill="#455267"/>
<polygon points="273,142 251,139 267,153 " fill="#6b6877"/>
<polygon points="117,113 117,103 109,110 " fill="#5e677d"/>
<polygon points="232,158 251,152 244,147 " fill="#646375"/>
<polygon points="222,127 228,138 212,141 " fill="#6d6b7b"/>
<polygon points="114,187 95,191 117,170 " fill="#1a2d47"/>
<polygon points="271,100 291,110 291,102 " fill="#7f7b84"/>
<polygon points="64,76 117,66 129,74 " fill="#908b8c"/>
<polygon points="288,155 283,147 284,161 " fill="#1e2b33"/>
<polygon points="305,109 287,107 319,98 " fill="#7f7b84"/>
<polygon points="164,171 153,176 170,181 " fill="#111a22"/>
<polygon points="-1,150 14,162 5,141 " fill="#23384c"/>
<polygon points="47,178 43,176 40,178 " fill="#445067"/>
<polygon points="99,58 94,54 52,59 " fill="#ad8b88"/>
<polygon points="222,158 217,165 231,167 " fill="#525667"/>
<polygon points="247,94 256,81 205,87 " fill="#91888a"/>
<polygon points="94,198 110,201 105,193 " fill="#262c36"/>
<polygon points="-19,73 32,66 -7,63 " fill="#848288"/>
<polygon points="97,115 104,115 104,114 " fill="#63707f"/>
<polygon points="183,90 163,100 147,89 " fill="#747b88"/>
<polygon points="96,53 111,58 44,55 " fill="#b88e87"/>
<polygon points="149,133 154,137 150,133 " fill="#4f3727"/>
<polygon points="206,164 207,161 215,172 " fill="#495062"/>
<polygon points="283,65 276,69 288,73 " fill="#9d8c87"/>
<polygon points="-4,148 -14,134 5,143 " fill="#364557"/>
<polygon points="37,117 17,108 55,118 " fill="#41536d"/>
<polygon points="300,106 300,119 301,115 " fill="#6e6b78"/>
<polygon points="136,108 127,112 121,129 " fill="#535e76"/>
<polygon points="44,150 43,143 60,156 " fill="#344457"/>
<polygon points="93,192 100,185 87,192 " fill="#213552"/>
<polygon points="76,146 72,151 77,153 " fill="#3f4e63"/>
<polygon points="60,166 45,189 39,187 " fill="#2c3a4c"/>
<polygon points="141,196 178,198 162,181 " fill="#0f1921"/>
<polygon points="33,-40 86,11 120,1 " fill="#c6af91"/>
<polygon points="195,193 195,197 188,197 " fill="#121f2a"/>
<polygon points="269,177 276,181 276,184 " fill="#17232c"/>
<polygon points="181,169 173,162 164,143 " fill="#454e61"/>
<polygon points="301,123 299,126 307,123 " fill="#4d5161"/>
<polygon points="222,166 232,166 226,167 " fill="#5d6072"/>
<polygon points="10,87 39,89 10,92 " fill="#5d687f"/>
<polygon points="312,159 327,164 305,146 " fill="#19272f"/>
<polygon points="93,55 102,59 105,58 " fill="#af8b88"/>
<polygon points="141,177 131,157 133,189 " fill="#111f29"/>
<polygon points="227,192 237,192 245,198 " fill="#333f50"/>
<polygon points="34,105 18,102 34,99 " fill="#4f5e77"/>
<polygon points="159,84 145,82 145,92 " fill="#7d808a"/>
<polygon points="290,153 277,135 287,142 " fill="#6d6a79"/>
<polygon points="308,106 305,107 322,107 " fill="#73727e"/>
<polygon points="98,61 101,69 110,60 " fill="#88868b"/>
<polygon points="18,171 26,172 16,171 " fill="#3a465c"/>
<polygon points="99,160 103,161 98,176 " fill="#2b3e60"/>
<polygon points="247,94 238,91 255,94 " fill="#958d8c"/>
<polygon points="-8,54 25,62 -17,65 " fill="#627286"/>
<polygon points="170,159 174,179 177,168 " fill="#1c232d"/>
<polygon points="48,45 71,46 26,31 " fill="#c49482"/>
<polygon points="177,126 170,107 182,112 " fill="#5d667b"/>
<polygon points="77,122 89,134 63,134 " fill="#3f4f66"/>
<polygon points="284,152 278,152 291,156 " fill="#202d35"/>
<polygon points="30,187 57,194 59,191 " fill="#2f313a"/>
<polygon points="302,111 311,111 314,114 " fill="#37424e"/>
<polygon points="225,95 206,95 229,92 " fill="#928a8a"/>
<polygon points="374,60 257,51 303,46 " fill="#d1977f"/>
<polygon points="274,153 276,147 276,153 " fill="#333a47"/>
<polygon points="83,83 97,81 65,81 " fill="#87878c"/>
<polygon points="150,109 139,118 148,125 " fill="#566179"/>
<polygon points="304,192 310,190 319,202 " fill="#132027"/>
<polygon points="91,123 109,119 98,129 " fill="#4a5870"/>
<polygon points="222,107 272,97 213,101 " fill="#878188"/>
<polygon points="286,12 242,24 257,6 " fill="#d5ba93"/>
<polygon points="17,137 10,135 0,141 " fill="#35465d"/>
<polygon points="49,166 68,171 58,154 " fill="#2f3f52"/>
<polygon points="169,179 178,184 175,172 " fill="#25212a"/>
<polygon points="242,38 272,34 215,27 " fill="#d5ac87"/>
<polygon points="162,109 165,97 148,110 " fill="#686f81"/>
<polygon points="241,161 231,165 245,154 " fill="#57596c"/>
<polygon points="234,168 238,170 232,170 " fill="#52586c"/>
<polygon points="259,101 218,115 283,103 " fill="#7b7984"/>
<polygon points="114,55 130,59 143,57 " fill="#b98e87"/>
<polygon points="116,167 111,172 118,174 " fill="#1e324e"/>
<polygon points="112,119 122,120 123,113 " fill="#545f75"/>
<polygon points="252,63 240,61 258,62 " fill="#857f87"/>
<polygon points="236,25 281,23 253,33 " fill="#d7b48b"/>
<polygon points="61,94 64,105 44,87 " fill="#5f6a81"/>
<polygon points="125,120 111,130 133,123 " fill="#4d5a70"/>
<polygon points="57,189 78,192 73,193 " fill="#2e3542"/>
<polygon points="78,31 109,21 57,12 " fill="#caa789"/>
<polygon points="185,182 194,194 180,188 " fill="#324051"/>
<polygon points="124,89 111,93 132,96 " fill="#717886"/>
<polygon points="86,197 100,201 77,197 " fill="#1c2731"/>
<polygon points="224,48 181,56 212,55 " fill="#cd9683"/>
<polygon points="215,17 200,8 237,10 " fill="#d4bb95"/>
<polygon points="216,42 244,45 224,32 " fill="#cfa184"/>
<polygon points="80,83 75,69 80,89 " fill="#88878c"/>
<polygon points="256,179 262,178 250,177 " fill="#192730"/>
<polygon points="108,70 132,81 170,71 " fill="#8e8a8c"/>
<polygon points="74,157 83,141 92,156 " fill="#36465b"/>
<polygon points="87,114 97,114 88,116 " fill="#58667c"/>
<polygon points="94,195 128,195 111,193 " fill="#1f2834"/>
<polygon points="302,14 300,23 351,1 " fill="#d0b28c"/>
<polygon points="311,126 331,118 320,135 " fill="#3c4653"/>
<polygon points="24,189 53,197 3,190 " fill="#212831"/>
<polygon points="199,166 182,176 204,155 " fill="#495062"/>
<polygon points="52,106 56,107 52,118 " fill="#535f77"/>
<polygon points="296,141 300,143 340,138 " fill="#15232b"/>
<polygon points="54,172 53,181 73,180 " fill="#2e3e52"/>
<polygon points="246,166 255,155 248,159 " fill="#5a5b6c"/>
<polygon points="262,171 270,148 262,170 " fill="#505260"/>
<polygon points="146,146 153,143 138,159 " fill="#14222e"/>
<polygon points="252,158 252,165 240,160 " fill="#58586a"/>
<polygon points="119,139 118,157 117,150 " fill="#292c3a"/>
<polygon points="191,153 178,156 222,167 " fill="#4c5365"/>
<polygon points="191,68 210,74 98,81 " fill="#8c898b"/>
<polygon points="110,59 129,62 108,62 " fill="#797f8a"/>
<polygon points="154,109 171,115 157,126 " fill="#556078"/>
<polygon points="240,188 236,191 262,187 " fill="#15232b"/>
<polygon points="68,74 57,64 73,62 " fill="#90898b"/>
<polygon points="51,89 62,95 25,90 " fill="#606b82"/>
<polygon points="99,61 123,60 126,61 " fill="#84858c"/>
<polygon points="259,160 257,156 270,171 " fill="#343d48"/>
<polygon points="20,92 28,104 19,101 " fill="#4f5e79"/>
<polygon points="309,128 303,134 329,129 " fill="#1c2932"/>
</svg>